<svg width="849" height="707" viewBox="0 0 849 707" fill="none" xmlns="http://www.w3.org/2000/svg">
<path fill-rule="evenodd" clip-rule="evenodd" d="M192.52 856.387C164.82 895.312 136.398 935.223 108.042 974.937L108.042 975.068L102.332 975.068C129.609 936.864 156.944 898.428 183.628 860.907L183.884 860.547L188.713 853.757C301.021 695.822 416.153 534.008 536.338 376.731C581.235 318.015 626.854 259.956 673.261 202.95C712.71 154.622 752.882 105.572 791.806 58.1651C842.676 -3.83841 894.072 -66.4996 945.401 -129.818L945.401 -122.454C895.319 -60.7134 845.105 0.501064 795.416 61.0581C756.492 108.465 716.255 157.515 676.871 205.843C506.144 415.327 346.706 639.539 192.52 856.387ZM54.9401 974.937L945.336 -189.915L945.336 -197.542L49.0325 974.937L54.9401 974.937ZM108.413 841.372C77.3972 879.194 45.8178 917.703 14.7687 955.803L14.7687 955.869L11.1586 952.91C42.1823 914.841 73.7356 876.364 104.727 838.571L104.795 838.489L104.822 838.456L105.095 838.123C113.322 828.091 121.51 818.106 129.637 808.191L132.392 804.832L132.393 804.832C300.23 600.205 473.722 388.685 630.268 170.205C666.566 119.511 703.324 67.8306 738.835 17.8595C806.443 -77.217 875.102 -173.74 945.27 -269.803L945.27 -261.847C876.48 -167.494 809.003 -72.8116 742.642 20.5553C707.131 70.5264 670.373 122.207 634.075 172.901C476.565 392.674 302.06 605.348 133.326 810.988L133.248 811.084C130.786 814.087 128.318 817.097 125.846 820.113C120.06 827.17 114.247 834.259 108.413 841.372ZM0.131357 906.489C30.147 872.013 60.5112 837.486 90.2698 803.648C94.6767 798.637 99.0703 793.641 103.447 788.663L103.618 788.47C279.872 588.119 462.083 380.998 612.742 156.398C647.465 104.585 682.451 51.6557 716.255 0.501119C775.527 -89.1838 835.653 -179.987 897.813 -269.934L892.234 -269.934C830.664 -180.841 771.064 -90.8934 712.382 -2.12901C678.578 49.0256 643.592 101.955 608.869 153.768C458.359 378.177 276.144 585.294 99.9029 785.573C67.0833 822.854 33.4104 861.121 0.131358 899.388L0.131357 906.489ZM0.196973 844.284L0.13136 844.354L0.196973 844.354L0.196973 844.284ZM0.196973 844.284C24.7243 818.073 49.3166 791.928 73.4503 766.373L73.8076 765.994L73.8091 765.992C257.619 570.829 447.687 369.02 591.344 139.894C622.544 90.0374 653.802 39.128 684.183 -10.3519L689.671 -19.2901C740.673 -102.531 792.396 -186.825 846.352 -269.934L840.904 -269.934C787.539 -187.614 736.275 -104.241 685.733 -21.7886C653.701 30.4838 620.553 84.5314 587.471 137.396C443.918 366.342 253.827 568.133 70.0371 763.217C47.0633 787.611 23.6302 812.531 0.196973 837.582L0.196973 844.284ZM0.196853 786.954C14.6154 772.576 28.9684 758.33 43.1906 744.215L43.2205 744.185C234.943 553.91 433.226 357.124 569.945 123.456C600.59 71.033 631.111 17.2982 660.717 -34.826L660.721 -34.833L663.022 -38.8841L664.196 -40.9519L664.199 -40.9566L664.202 -40.9621L664.203 -40.9642L664.203 -40.9647C707.468 -117.15 751.199 -194.156 797.057 -269.934L791.609 -269.934C746.887 -195.892 704.173 -120.719 661.932 -46.3809L661.929 -46.3758L661.929 -46.3748L661.925 -46.3678L661.925 -46.367L659.018 -41.2511C628.758 12.0733 597.448 67.2387 566.007 121.023C429.645 354.069 231.74 550.547 40.3377 740.567L40.3369 740.568L39.9086 740.993C26.7808 754.012 13.5217 767.228 0.196853 780.51L0.196853 786.954ZM0.196853 786.954L0.196853 787.085L0.131301 787.019L0.196853 786.954ZM44.8316 698.189C29.9971 711.142 15.097 724.227 0.131304 737.377L0.131304 731.196C14.0468 718.967 27.8966 706.802 41.6809 694.77C110.799 634.279 182.214 571.749 248.116 505.472C362.788 389.947 462.494 255.09 544.543 104.651C580.776 38.1767 614.449 -30.8623 647.006 -97.6657C674.705 -154.541 703.127 -212.731 733.387 -269.934L738.638 -269.934C707.984 -212.073 679.234 -153.16 651.141 -95.5616L650.996 -95.2653C618.484 -28.5539 584.857 40.445 548.612 106.953C466.432 257.786 366.464 392.971 251.464 508.694C185.786 574.811 114.643 637.083 45.7432 697.391L44.8316 698.189ZM10.6106 681.798L10.6261 681.785L10.6693 681.75C12.7209 680.075 14.7667 678.406 16.8036 676.754C88.7442 618.564 163.113 558.336 231.247 493.242C349.594 380.018 449.169 244.504 527.214 90.449C561.74 22.2648 592.985 -48.6152 623.179 -117.194L623.354 -117.592C645.55 -167.896 668.205 -219.243 692.362 -270L687.242 -270C663.517 -220.118 641.281 -169.717 619.44 -120.214L618.978 -119.166L618.391 -117.836C588.38 -49.7369 557.381 20.6016 523.079 88.2792C445.231 241.94 345.919 377.059 227.965 489.954C159.963 554.982 85.6592 615.145 13.7843 673.269L12.5658 674.26L11.6142 675.034L11.5919 675.052C7.77565 678.156 3.92067 681.292 0.0656931 684.381L0.0656929 690.365L0.131306 690.299C3.62978 687.495 7.12832 684.64 10.6106 681.798ZM211.096 477.856C144.295 538.526 71.329 593.676 0.196859 646.92L0.19686 641.183C70.3652 588.713 142.174 534.271 207.945 474.503C327.54 365.75 429.149 226.554 501.746 71.9728C534.5 2.21058 563.25 -70.3789 591.015 -140.536C607.95 -183.274 625.213 -226.736 643.461 -269.934L648.45 -269.934C630.699 -227.941 613.914 -185.646 597.401 -144.034L595.282 -138.695L594.972 -137.912L594.971 -137.911C567.237 -67.9322 538.579 4.3773 505.881 74.0111C433.022 229.119 331.084 368.709 211.096 477.856ZM0.196859 646.92L0.131308 646.969L0.196859 646.969L0.196859 646.92ZM0.262535 606.703C65.0712 561.56 130.532 514.576 190.879 462.405C314.149 355.756 415.693 215.771 484.483 57.5076C515.487 -13.929 541.777 -88.185 567.212 -160.022L567.32 -160.327C580.119 -196.556 593.181 -233.311 606.9 -270L601.977 -270C588.521 -233.903 575.656 -197.739 563.053 -162.036C537.651 -90.17 511.329 -15.9367 480.348 55.535C411.82 213.207 310.67 352.731 187.859 458.92C128.522 510.206 64.1295 556.561 0.262535 601.074L0.262535 606.703ZM0.262535 606.703L0.262535 606.729L0.131309 606.795L0.262535 606.703ZM170.662 446.953C116.641 491.401 58.4189 531.312 0.131311 569.316L0.0656982 569.316L0.0656984 563.793C57.3687 526.381 114.475 487.061 167.577 443.468C293.67 339.778 394.36 199.925 458.752 39.1629C488.028 -33.9527 511.854 -109.961 534.894 -183.471C543.821 -212.139 552.945 -241.07 562.397 -270L567.254 -270C557.605 -240.543 548.35 -211.087 539.226 -181.959C516.187 -108.383 492.36 -32.3088 463.019 41.004C398.364 202.489 297.28 342.869 170.662 446.953ZM0.131374 534.205C51.6581 502.447 102.66 468.914 150.511 431.567C278.573 331.428 382.02 186.841 441.686 24.5662C469.255 -50.4561 490.653 -128.24 511.329 -203.46C517.368 -225.486 523.473 -247.71 529.774 -269.934L524.982 -269.934C518.812 -248.171 512.839 -226.407 506.932 -204.84L506.655 -203.836L506.655 -203.835L506.655 -203.835L506.655 -203.835L506.655 -203.834L506.655 -203.834C486.065 -128.993 464.8 -51.7 437.42 22.8566C378.016 184.408 275.028 328.272 147.557 428.017C100.691 464.64 50.7392 497.582 0.131374 528.813L0.131374 534.205ZM130.294 416.116C88.7646 446.938 44.809 474.804 0.196866 500.962L0.196866 495.675C43.847 469.966 86.8407 442.679 127.471 412.499C258.159 315.319 360.622 171.126 416.021 6.48457C441.752 -70.1815 460.656 -149.544 478.904 -226.275C482.317 -240.741 485.796 -255.337 489.34 -269.934L494.066 -269.934C490.456 -254.943 486.846 -239.952 483.302 -225.026L483.04 -223.931L483.04 -223.929C464.808 -147.407 445.961 -68.3041 420.288 8.12836C364.626 173.493 261.638 318.409 130.294 416.116ZM0.196866 500.962L0.131314 501.001L0.196866 501.001L0.196866 500.962ZM0.131315 469.44C37.8083 448.202 74.8288 425.649 110.077 400.73C242.799 306.902 348.019 157.778 398.889 -8.30953C422.913 -86.9482 439.389 -168.085 455.273 -246.527C456.061 -250.406 456.849 -254.302 457.637 -258.198C458.424 -262.094 459.212 -265.989 460 -269.869L455.339 -269.869L455.323 -269.788C453.819 -262.385 452.314 -254.982 450.81 -247.645C434.925 -169.269 418.45 -88.2633 394.492 -9.82186C343.884 155.411 239.189 303.746 107.254 397.113C72.8595 421.441 36.8236 443.468 0.0657028 464.246L0.0657025 469.506L0.131315 469.44ZM89.9256 385.278C60.9339 404.727 30.8277 422.534 0.196868 439.29L0.196869 434.066C29.9314 417.694 59.141 400.401 87.2346 381.53C222.32 290.662 326.555 141.998 373.159 -26.2597C395.326 -106.407 409.302 -189.048 422.812 -268.936L422.848 -269.145C422.913 -269.408 422.979 -269.934 422.979 -269.934L427.639 -269.934C427.62 -269.846 427.602 -269.757 427.585 -269.669C427.544 -269.462 427.51 -269.254 427.475 -269.047L427.475 -269.045C427.426 -268.749 427.377 -268.454 427.311 -268.159L427.28 -267.971C413.768 -187.944 399.791 -105.164 377.557 -24.8132C330.69 144.365 225.864 293.884 89.9256 385.278ZM0.196868 439.29L0.131317 439.326L0.196868 439.326L0.196868 439.29ZM0.131379 410.395C23.8271 397.705 47.0634 384.292 69.709 369.827C206.829 282.18 313.887 128.453 356.093 -41.3168C374.866 -116.997 386.156 -194.452 396.526 -269.934L391.932 -269.934C381.626 -194.846 370.336 -117.786 351.695 -42.6318C309.686 126.152 203.285 278.958 67.0833 366.013C45.2911 379.887 22.9082 392.905 0.131379 405.135L0.131379 410.329L0.131379 410.395ZM49.492 354.441C33.366 364.225 16.8471 373.288 0.196993 382.153L0.196993 376.993C16.016 368.512 31.7038 359.832 46.9977 350.561C186.35 265.874 292.226 112.739 330.296 -59.0039C345.722 -128.832 354.583 -200.041 362.197 -269.934L366.792 -269.934C359.112 -199.712 350.251 -128.043 334.694 -57.7546C296.427 115.106 189.763 269.161 49.492 354.441ZM0.196993 382.153L0.131319 382.188L0.196993 382.188L0.196993 382.153ZM0.13132 355.032C9.97727 349.838 19.6919 344.512 29.3408 338.989C170.662 257.392 279.492 99.0623 313.362 -74.2583C326.03 -139.155 332.922 -205.038 338.305 -269.934L333.71 -269.934C328.327 -205.367 321.435 -139.812 308.898 -75.3761C275.291 96.761 167.249 254.038 26.9121 335.044C18.1165 340.107 9.18955 344.972 0.196994 349.772L0.196994 354.967L0.13132 355.032ZM9.12388 323.538C6.17014 325.181 3.15079 326.759 0.131383 328.337L3.48839e-05 328.272L3.51109e-05 323.077C2.23179 321.96 4.4636 320.776 6.62967 319.592C150.051 240.954 257.634 83.2821 287.369 -91.7481C297.411 -150.859 302.531 -210.692 306.141 -269.934L310.736 -269.934C307.126 -210.364 302.006 -150.201 291.898 -90.6961C261.966 85.5833 153.596 244.307 9.12388 323.538ZM0.131323 301.971C141.978 223.004 245.097 67.5018 270.499 -107.265C278.31 -161.379 282.117 -215.887 284.218 -270L279.689 -270C277.523 -216.15 273.781 -161.905 266.036 -108.12C240.962 64.3457 139.615 218.007 0.131384 296.777L0.131323 301.971ZM165.739 127.927C127.68 185.245 70.8598 235.991 0.196876 275.962L0.196876 270.673C69.1181 231.223 124.649 181.515 161.932 125.363C204.532 61.1896 232.363 -22.8407 244.703 -124.492C250.545 -172.885 253.105 -221.607 254.155 -270L258.684 -270C257.634 -221.344 255.074 -172.359 249.166 -123.703C236.695 -21.3941 208.667 63.2278 165.739 127.927ZM0.196876 275.962L0.131324 275.999L0.196876 275.999L0.196876 275.962ZM0.196877 249.857C63.0488 212.649 113.502 166.439 147.951 114.251C190.616 49.4201 217.463 -36.1883 227.768 -140.207C232.035 -183.406 233.61 -226.801 233.873 -270L229.343 -270C229.081 -226.999 227.506 -183.866 223.305 -140.864C213.131 -37.569 186.481 47.3818 144.144 111.687C110.536 162.644 61.3727 207.881 0.196877 244.504L0.196877 249.857ZM0.196877 249.857L0.196877 249.896L0.131325 249.896L0.196877 249.857ZM130.097 100.64C99.3779 147.587 55.1371 189.339 0.131387 223.727L0.0658353 223.793L0.0658356 218.335C53.3648 184.539 96.2928 143.839 126.224 98.0761C168.365 33.6398 193.767 -52.2315 201.775 -157.171C204.663 -194.781 205.451 -232.39 205.188 -269.934L209.717 -269.934C210.046 -232.193 209.192 -194.32 206.304 -156.579C198.231 -50.9165 172.566 35.6123 130.097 100.64ZM0.131327 197.032C47.2602 165.471 85.7248 127.927 112.309 86.9642C154.58 21.7388 178.998 -65.7106 184.906 -173.083C186.678 -205.367 186.875 -237.716 186.284 -269.934L181.755 -269.934C182.411 -237.848 182.149 -205.695 180.377 -173.543C174.535 -66.9598 150.314 19.8978 108.436 84.4657C82.6398 124.179 45.488 160.606 0.131327 191.509L0.131327 197.032ZM94.5206 73.2878C71.6125 108.859 39.3836 141.604 0.131389 169.942L0.131389 169.877L0.13139 164.156C37.677 136.606 68.5273 104.98 90.6478 70.6578C132.329 5.95846 155.302 -81.7539 158.978 -190.046C159.897 -216.676 159.766 -243.371 158.978 -270L163.507 -270C164.295 -243.239 164.426 -216.413 163.507 -189.586C159.766 -80.5046 136.595 7.93093 94.5206 73.2878ZM0.13133 142.195C31.5068 117.473 57.5656 89.6599 76.7322 59.6115C118.61 -5.94263 140.599 -95.2988 142.109 -206.024C142.371 -227.328 141.978 -248.697 141.124 -270L136.595 -270C137.383 -248.828 137.842 -227.591 137.58 -206.419C136.07 -96.4823 114.278 -7.84943 72.8595 57.0472C54.5462 85.7148 29.8659 112.41 0.13133 136.278L0.13133 142.13L0.13133 142.195ZM58.9441 45.9354C43.5846 70.1319 23.7615 92.7503 0.131392 113.396L0.197005 113.331L0.197005 107.084C22.1205 87.4244 40.6307 66.1211 55.0714 43.3711C96.2272 -21.6571 116.838 -111.211 116.182 -222.791C116.05 -238.505 115.525 -254.285 114.803 -270L119.332 -270C120.054 -254.22 120.645 -238.374 120.711 -222.528C121.367 -110.158 100.559 -19.816 58.9441 45.9354ZM0.131332 82.9533C16.0817 67.0415 29.9316 50.1434 41.1559 32.3248C82.5741 -33.5581 102.135 -124.821 99.3122 -238.965C99.0496 -249.288 98.5246 -259.677 97.9994 -270L93.4703 -270C93.9955 -259.743 94.5206 -249.42 94.7831 -239.163C97.6056 -125.939 78.2421 -35.465 37.2832 29.7605C26.9778 46.0668 14.5719 61.7156 0.196884 76.3782L0.196884 82.8876L0.131332 82.9533ZM0.131395 42.845L0.131395 50.0776C8.73015 39.9518 16.5412 29.4975 23.3021 18.7142C64.5235 -47.3659 82.9024 -139.549 77.8482 -255.338C77.7285 -258.291 77.5362 -261.244 77.3448 -264.182L77.3446 -264.184L77.3446 -264.186L77.3446 -264.187L77.3446 -264.189L77.3446 -264.19L77.3446 -264.191L77.3446 -264.192L77.3446 -264.194L77.3446 -264.194L77.3446 -264.195L77.3446 -264.196C77.2211 -266.094 77.098 -267.987 76.995 -269.869L72.4659 -269.869C72.5693 -267.978 72.6932 -266.077 72.8173 -264.174L72.8185 -264.157L72.8195 -264.14L72.8204 -264.124C73.0103 -261.212 73.2004 -258.296 73.3191 -255.403C78.3077 -140.536 60.1256 -49.1412 19.3637 16.2156C13.653 25.3551 7.15483 34.2315 0.0658433 42.9107L0.131395 42.845ZM158.584 974.937C179.917 942.784 201.184 910.698 221.926 879.203L222.002 879.088L222.003 879.086L222.005 879.084C369.078 656.486 521.141 426.336 698.138 222.215C738.966 175.137 780.844 127.533 821.343 81.5068C862.499 34.7576 903.983 -12.4519 945.27 -60.0559L945.27 -67.1571C904.992 -20.6363 864.536 25.3522 824.352 71.0327L824.347 71.0386L817.799 78.4823C777.299 124.508 735.422 172.112 694.594 219.19C646.48 274.684 600.205 332.085 555.308 390.736C435.057 548.013 325.177 714.298 217.988 876.573C196.655 908.922 174.797 941.929 152.874 974.871L158.453 974.871L158.584 974.937ZM206.804 974.871L206.763 974.937L206.829 974.871L206.804 974.871ZM251.332 902.281C236.708 926.193 221.822 950.499 206.804 974.871L201.381 974.871C213.301 955.494 225.181 936.117 236.933 916.95C240.454 911.207 243.964 905.483 247.46 899.783C349.594 733.037 454.354 562.149 574.671 404.741C619.437 346.156 666.369 289.478 716.124 235.562C758.395 189.799 801.848 143.642 843.923 98.9966L847.248 95.4644C879.829 60.856 912.644 25.9996 945.336 -9.16437L945.336 -2.32629C913.615 31.7456 881.833 65.5078 850.228 99.0807L850.218 99.0919L850.201 99.1101L850.19 99.121L847.336 102.153C805.262 146.798 761.808 192.955 719.537 238.718C536.55 436.992 391.808 673.116 251.819 901.486L251.817 901.489L251.816 901.491L251.814 901.494L251.813 901.498L251.812 901.5L251.332 902.281ZM252.645 974.937C262.032 958.433 271.418 941.929 280.673 925.623C413.921 690.825 551.763 448.005 740.935 255.156C784.585 210.708 829.548 166.063 873.067 122.864C877.755 118.207 882.448 113.547 887.145 108.883L887.288 108.741L887.317 108.712L887.333 108.697C906.641 89.5236 926.01 70.2915 945.336 50.9325L945.336 44.3573C925.13 64.5972 904.883 84.7103 884.695 104.764L884.673 104.786L884.656 104.803L884.639 104.82L884.616 104.842L884.202 105.254C879.371 110.053 874.543 114.849 869.719 119.643C826.201 162.841 781.238 207.487 737.588 251.935C686.258 304.207 638.801 360.161 594.1 418.614C473.718 576.089 373.946 751.842 276.669 923.256C269.411 935.979 262.117 948.849 254.786 961.783C252.304 966.161 249.818 970.547 247.328 974.937L252.645 974.937ZM324.717 911.881C314.543 932.724 304.238 953.765 293.801 974.937L293.801 974.871L288.616 974.871C299.38 952.976 310.08 931.212 320.582 909.645L320.586 909.636L320.589 909.631C360.889 826.986 402.568 741.515 449.366 660.382C485.599 597.59 526.295 536.638 571.192 477.922C627.379 404.412 690.131 334.321 758.986 268.307C813.663 215.903 871.492 165.274 927.416 116.355C933.389 111.161 939.363 105.966 945.336 100.706L945.336 106.887C940.413 111.226 935.49 115.566 930.567 119.84L930.113 120.237L930.111 120.239C874.393 168.968 816.731 219.398 762.268 271.66C638.669 390.21 534.697 521.844 453.304 662.881C406.635 743.886 364.954 829.297 324.717 911.881ZM344.843 950.928L344.854 950.903C347.471 944.974 350.081 939.062 352.679 933.185C389.962 848.497 428.558 760.982 473.521 678.266C551.566 534.731 655.933 403.426 783.666 288.098C836.046 240.823 891.38 195.717 945.336 151.992L945.336 146.009C890.33 190.523 833.88 236.483 780.45 284.679C709.232 348.983 645.299 418.154 589.112 491.664C544.215 550.446 504.24 611.923 469.452 675.899C424.569 758.478 386.077 845.825 348.842 930.322L348.478 931.146C342.111 945.612 335.613 960.274 329.115 974.871L334.169 974.871L334.235 974.937C337.775 966.939 341.315 958.919 344.843 950.928ZM380.642 954.488C377.951 961.26 375.259 968.099 372.568 974.937L372.568 974.871L367.579 974.871L376.441 952.581C410.77 865.855 446.347 776.104 489.603 691.417C522.357 627.441 561.806 565.24 606.9 506.261C663.612 432.093 729.251 362.857 801.914 301.116C848.387 261.6 897.091 224.187 945.336 187.893L945.336 193.679C898.075 229.25 850.421 265.939 804.999 304.536C674.968 415.064 567.32 549.657 493.672 693.652C450.556 777.999 415.092 867.521 380.818 954.044L380.642 954.488ZM408.932 974.937C440.176 886.501 472.537 795.172 513.824 709.104C584.189 562.61 692.231 428.411 826.332 321.039C864.928 290.202 905.099 260.877 945.336 232.472L945.336 226.883C904.114 255.88 862.893 285.796 823.378 317.489C748.418 377.52 681.597 445.835 624.819 520.069C579.725 579.113 540.998 641.84 509.688 706.934C468.204 793.529 435.713 885.318 404.337 974.148C404.307 974.27 404.262 974.391 404.217 974.513C404.195 974.572 404.173 974.631 404.152 974.689L404.135 974.738C404.112 974.804 404.091 974.87 404.075 974.937L408.932 974.937ZM534.04 724.49C497.611 805.561 469.911 891.235 443.59 974.937L438.732 974.937C465.185 890.578 493.082 804.246 529.84 722.451C559.705 656.174 597.645 592.855 642.805 533.811C699.583 459.643 767.585 392.116 844.842 333.861C877.53 309.27 911.335 285.862 945.336 263.244L945.336 268.767C912.319 290.793 879.5 313.543 847.73 337.477C709.56 441.693 601.058 575.497 534.04 724.49ZM476.541 974.937C498.464 896.101 522.16 816.016 554.192 739.941C617.008 590.62 728.858 453.594 869.063 353.981C893.94 336.293 919.539 319.395 945.336 303.023L945.336 297.566C918.621 314.464 892.102 331.954 866.306 350.299C787.67 406.121 717.962 473.714 660.724 548.605C615.433 607.912 577.887 671.757 549.991 738.034C517.696 814.832 493.869 895.575 471.749 975.002L476.541 975.002L476.541 974.937ZM574.409 755.327C546.446 826.536 526.229 901.098 508.113 974.937L508.113 975.002L503.387 975.002C521.635 900.572 541.983 825.418 570.142 753.552C596.595 686.157 633.353 621.72 678.709 562.412C735.947 487.456 806.837 420.784 887.704 366.671C906.609 354.046 925.906 341.882 945.336 330.113L945.336 335.504C926.825 346.814 908.512 358.386 890.461 370.418C746.252 466.876 634.009 603.573 574.409 755.327ZM538.307 974.937C553.207 906.161 570.339 837.056 594.56 770.713C650.091 618.761 765.747 478.842 911.794 386.856C922.887 379.887 934.046 373.18 945.336 366.539L945.336 361.213C933.192 368.38 921.115 375.613 909.168 383.108C827.054 434.855 754.457 501.658 696.694 577.207C651.206 636.712 614.842 701.74 590.228 769.003C565.81 835.938 548.547 905.635 533.581 974.937L538.307 974.937ZM614.711 786.164C593.969 847.576 579.463 911.289 567.32 974.937L567.188 974.937L562.528 974.937C574.737 910.763 589.309 846.524 610.313 784.521C633.549 716.073 669.192 650.585 714.68 591.014C772.442 515.4 846.155 449.452 930.567 399.415C934.055 397.337 937.577 395.328 941.108 393.313L941.113 393.31L941.119 393.307L941.134 393.298L941.147 393.291L941.153 393.287L941.159 393.284C942.528 392.502 943.899 391.72 945.27 390.933L945.27 396.259C943.273 397.439 941.243 398.604 939.213 399.768L939.198 399.776C937.164 400.943 935.129 402.111 933.127 403.294C783.141 492.256 667.026 631.78 614.711 786.164ZM595.216 974.937C604.996 916.484 617.205 858.096 634.862 801.55C682.319 650.191 797.976 510.206 945.336 424.992L945.336 419.666C862.565 467.073 789.64 531.641 732.862 605.874C687.177 665.642 651.994 731.657 630.53 799.972C612.676 857.045 600.402 915.958 590.556 974.937L595.216 974.937ZM655.079 817.002C640.245 868.617 630.071 921.678 622.194 974.937L622.128 974.937L617.533 974.937C625.41 921.218 635.65 867.63 650.681 815.489C670.701 746.122 705.227 679.516 750.912 619.748C802.899 551.761 869.325 492.585 945.336 447.939L945.336 453.265C804.671 536.769 697.351 670.574 655.079 817.002ZM648.253 974.937C654.488 926.872 662.89 879.071 675.23 832.388C712.054 693.258 813.27 563.136 945.336 481.473L945.336 476.015C877.005 517.833 816.748 572.538 769.16 634.805C723.278 694.77 689.146 761.836 670.833 831.007C658.361 878.216 649.959 926.478 643.658 974.937L648.253 974.937ZM695.447 847.774C685.339 889.591 678.512 932.132 673.589 974.937L668.995 974.937C673.918 931.738 680.81 888.737 690.984 846.524C707.919 776.302 741.395 708.775 787.276 648.744C830.205 592.592 884.029 543.081 945.336 504.025L945.336 509.417C820.687 589.699 727.742 713.772 695.447 847.774ZM698.204 974.937C702.077 937.393 707.59 899.98 715.598 863.225C743.692 734.352 828.564 616.263 945.336 537.493L945.336 531.97C891.183 568.067 843.661 612.515 805.393 662.683C759.511 722.714 726.691 790.767 711.135 862.107C703.061 899.323 697.482 937.064 693.609 975.002L698.204 975.002L698.204 974.937ZM735.684 878.611C729.514 910.435 725.182 942.587 722.162 974.937L722.097 975.002L717.502 975.002C720.521 942.258 724.854 909.711 731.155 877.559C747.565 793.989 779.006 720.61 822.525 663.67C827.71 656.963 833.027 650.454 838.541 644.142C867.028 611.595 902.736 581.941 945.27 555.311L945.27 560.769C904.311 586.675 869.719 615.54 842.085 647.1C790.69 705.816 753.932 785.836 735.684 878.611ZM745.596 974.937C747.893 947.781 751.241 920.823 755.901 894.062C772.376 799.972 808.347 719.295 859.939 660.777C883.372 634.213 911.925 609.753 945.336 587.53L945.336 582.006C910.481 604.954 880.681 630.202 856.395 657.752C850.881 663.998 845.564 670.508 840.379 677.28C796.86 734.221 766.206 808.257 751.372 893.076C746.646 920.166 743.298 947.518 741.001 975.002L745.596 975.002L745.596 974.937ZM776.052 909.448C772.705 931.146 770.276 952.976 768.504 974.937L763.975 974.937C765.747 952.713 768.175 930.555 771.589 908.528C784.848 822.525 814.582 747.897 858.167 690.891C863.352 684.118 868.735 677.609 874.248 671.362C894.203 648.941 917.964 628.098 945.336 608.899L945.336 614.488C919.408 632.964 896.828 652.952 877.727 674.453C825.938 732.774 790.755 814.043 776.052 909.448ZM791.084 974.937C792.331 958.17 793.972 941.469 796.203 924.9C809.003 829.56 844.251 745.464 895.516 688.129C910.022 671.889 926.694 656.634 945.336 642.235L945.336 636.383C925.316 651.571 907.462 667.812 892.037 685.039C886.72 691.022 881.534 697.268 876.546 703.778C833.093 760.587 803.227 837.779 791.674 924.045C789.443 940.943 787.736 957.907 786.489 974.937L791.084 974.937ZM816.355 940.286C815.042 951.792 814.057 963.364 813.204 974.937L813.204 974.871L808.609 974.871C809.462 963.101 810.513 951.266 811.826 939.497C821.868 851.982 850.881 774.132 894.334 717.323C899.323 710.813 904.442 704.567 909.825 698.649C920.524 686.814 932.405 675.505 945.336 664.722L945.336 670.705C933.718 680.633 923.018 690.956 913.304 701.74C861.843 758.878 827.448 843.631 816.355 940.286ZM834.996 974.937C835.456 968.493 835.915 962.115 836.571 955.737C845.892 857.768 879.5 772.422 931.158 715.416C935.687 710.485 940.478 705.619 945.401 700.885L945.401 694.441C939.231 700.293 933.258 706.211 927.679 712.326C922.296 718.243 917.111 724.49 912.122 730.999C868.669 787.874 840.444 866.315 831.977 955.014C831.484 959.995 831.103 964.977 830.721 969.958C830.594 971.617 830.467 973.277 830.336 974.937L834.931 974.937L834.996 974.937ZM856.723 971.123C856.591 972.438 856.526 973.687 856.46 974.937L851.865 974.937L851.874 974.756C851.937 973.364 852.002 971.918 852.128 970.531C859.02 880.649 886.457 801.484 929.845 744.675C934.833 738.166 939.953 731.985 945.336 726.134L945.336 733.235C895.581 790.044 864.14 874.206 856.723 971.123ZM877.662 974.937C884.16 893.799 907.724 822.459 945.336 769.398L945.336 761.442C905.033 815.753 879.762 890.117 873.133 974.937L877.662 974.937ZM945.336 811.61C920.393 857.11 904.377 912.867 898.797 974.937L898.732 974.937L894.203 974.937C900.11 908.725 917.702 849.549 945.336 802.142L945.336 811.61Z" fill="url(#paint0_linear_904_419)"/>
<defs>
<linearGradient id="paint0_linear_904_419" x1="846" y1="-2.50011" x2="374.5" y2="689" gradientUnits="userSpaceOnUse">
<stop stop-color="#F7F7F7"/>
<stop offset="1" stop-color="#E4F8E2" stop-opacity="0"/>
</linearGradient>
</defs>
</svg>
