<svg width="124" height="101" viewBox="0 0 124 101" fill="none" xmlns="http://www.w3.org/2000/svg">
<path fill-rule="evenodd" clip-rule="evenodd" d="M121.945 71.0586V2.2828H2.05523V71.0586H121.945ZM0 0.219482H124V73.1218H0V0.219482ZM32.9524 24.291V53.3832H37.9535V19.9581H28.0884L25.9646 24.291H32.9524ZM62.9591 53.383V24.2908H56.0398L58.1635 19.958H68.0287V53.383H62.9591ZM93.0344 24.2908V53.383H98.0355V19.958H88.1703L86.0466 24.2908H93.0344ZM1.02765 87.1521C2.26083 85.639 3.56245 85.0201 5.4807 85.0201C7.05642 85.0201 8.01551 85.5014 8.70056 86.0517C9.65972 86.877 9.93375 87.7711 9.93375 88.8027C9.93375 90.522 8.90611 91.4162 8.15255 91.8976C10.0022 92.379 10.8928 93.8921 10.8928 95.6116C10.8928 97.0559 10.4133 98.2938 8.9746 99.2566C8.01551 99.8756 6.71383 100.219 5.54919 100.219C2.8089 100.219 1.0962 98.844 0.0685538 96.7119L2.05529 95.6803C2.94589 98.0186 5.06968 98.1562 5.82323 98.1562C6.3713 98.1562 7.12491 98.0186 7.67298 97.6748C8.56358 97.1246 8.70056 96.368 8.70056 95.7491C8.70056 93.4107 6.57684 93.2044 5.27516 93.2044H3.83649V91.1411H5.13817C6.71383 91.1411 7.74147 90.3158 7.74147 88.9402C7.74147 88.4588 7.60449 88.0462 7.2619 87.6336C6.71383 87.1521 6.09726 87.0146 5.54919 87.0146C4.72709 87.0146 3.56245 87.1521 2.60336 88.5277L1.02765 87.1521ZM25.8963 87.3584H31.7194V85.2264H23.704V99.8756H31.7194V97.8124H25.8963V92.9292H31.514V90.866H25.8963V87.3584ZM56.1081 85.2952V99.9444H53.8474V87.3584H49.0518V94.6487C49.0518 96.368 48.9148 98.0186 47.5446 99.1191C46.9965 99.5318 46.1744 100.013 45.0098 100.013C44.9074 100.013 44.8093 100.009 44.7142 100.002C44.64 99.9958 44.5676 99.9879 44.4968 99.9786C44.3718 99.9623 44.2514 99.9414 44.1326 99.9188C44.0592 99.9048 43.9864 99.8902 43.9137 99.8756V97.8124C44.0507 97.8811 44.3932 97.9499 44.6673 97.9499C45.1468 97.9499 45.7634 97.7436 46.0374 97.4684C46.7225 96.7807 46.791 95.1301 46.791 93.9609V85.2264H56.1081V85.2952ZM70.4952 87.3584H76.3184V85.2264H68.2344V99.8756H76.3184V97.8124H70.4952V92.9292H76.1129V90.866H70.4952V87.3584ZM91.5273 91.0036H97.7615V85.2952H100.022V99.9444H97.7615V93.0669H91.5273V99.8756H89.2665V85.2264H91.5273V91.0036ZM112.285 99.9444L113.861 96.368H120.027L121.602 99.9444H124L117.081 84.4699L109.819 99.9444H112.285ZM116.944 89.3529L119.136 94.3048H114.683L116.944 89.3529Z" fill="#12A33B"/>
</svg>
