<svg width="77" height="125" viewBox="0 0 77 125" fill="none" xmlns="http://www.w3.org/2000/svg">
<g clip-path="url(#clip0_916_9)">
<path d="M74.4447 2.56498V98.0677H2.55531V2.56498H74.4447ZM77 0H0V100.633H77V0Z" fill="white"/>
<path d="M20.2721 68.3139V37.0212H12.7766L15.0763 32.3187H25.5531V68.2284H20.2721V68.3139Z" fill="white"/>
<path d="M37.989 68.3139V37.0212H30.4934L32.7932 32.3187H43.3551V68.2284H37.989V68.3139Z" fill="white"/>
<path d="M55.1095 68.3139V37.0212H47.614L49.9137 32.3187H60.4757V68.2284H55.1095V68.3139Z" fill="white"/>
<path d="M1.19247 115.595C2.12942 114.484 2.98118 114.056 4.34402 114.056C5.45132 114.056 6.13273 114.398 6.6438 114.826C7.32521 115.424 7.49557 116.108 7.49557 116.792C7.49557 118.075 6.81415 118.673 6.21791 119.015C7.58074 119.357 8.17698 120.469 8.17698 121.666C8.17698 122.692 7.83627 123.632 6.81415 124.316C6.13273 124.744 5.19579 125 4.34402 125C2.38495 125 1.10729 124.06 0.340698 122.435L1.78871 121.666C2.47012 123.29 3.91813 123.461 4.51437 123.461C4.94026 123.461 5.45132 123.376 5.8772 123.119C6.47344 122.692 6.6438 122.179 6.6438 121.751C6.6438 120.127 5.11061 119.956 4.17366 119.956H3.23672V118.417H4.17366C5.28096 118.417 6.04756 117.818 6.04756 116.878C6.04756 116.536 5.96238 116.194 5.70685 115.937C5.36614 115.595 4.85508 115.51 4.42919 115.51C3.83295 115.51 2.98118 115.595 2.29977 116.621L1.19247 115.595Z" fill="white"/>
<path d="M20.2721 115.766H16.0984V118.331H20.1869V119.87H16.0984V123.376H20.2721V124.915H14.4801V114.398H20.2721V115.766Z" fill="white"/>
<path d="M34.3263 114.313V124.829H32.7079V115.766H29.2157V120.982C29.2157 122.179 29.1305 123.376 28.1084 124.231C27.7677 124.573 27.1714 124.829 26.2345 124.829C25.979 124.829 25.7234 124.829 25.4679 124.744V123.205C25.5531 123.205 25.8086 123.29 25.979 123.29C26.3197 123.29 26.7456 123.119 27.0011 122.948C27.5121 122.435 27.5121 121.238 27.5121 120.469V114.227H34.3263V114.313Z" fill="white"/>
<path d="M46.8473 115.766H42.6737V118.331H46.7622V119.87H42.6737V123.376H46.8473V124.915H41.0553V114.398H46.8473V115.766Z" fill="white"/>
<path d="M54.6836 118.417H59.1128V114.313H60.7312V124.829H59.1128V119.956H54.6836V124.829H53.0652V114.313H54.6836V118.417Z" fill="white"/>
<path d="M73.7633 122.264H69.3341L68.1416 124.829H66.438L71.6338 113.714L76.5741 124.829H74.8706L73.7633 122.264ZM73.0819 120.725L71.5487 117.134L69.9303 120.725H73.0819Z" fill="white"/>
</g>
<defs>
<clipPath id="clip0_916_9">
<rect width="77" height="125" fill="white"/>
</clipPath>
</defs>
</svg>
