<svg width="230" height="210" viewBox="0 0 230 210" fill="none" xmlns="http://www.w3.org/2000/svg">
<path fill-rule="evenodd" clip-rule="evenodd" d="M0.5 210H165.657V164.961H99.2677L133.279 133.217C143.799 123.269 151.418 113.592 156.134 104.186C161.031 94.5995 163.48 84.199 163.48 72.9845C163.48 62.4935 161.485 52.8165 157.494 43.9535C153.504 34.9096 147.971 27.1318 140.897 20.6202C133.823 14.1085 125.388 9.04393 115.593 5.42637C105.979 1.80879 95.4585 0 84.0308 0C72.4217 0 61.7196 1.89922 51.9245 5.69768C42.3107 9.49612 33.9667 14.9225 26.8925 21.9767C19.8182 29.031 14.2858 37.4419 10.2951 47.2093C6.48592 56.9768 4.58131 67.8295 4.58131 79.7674H62.808C62.2638 75.969 61.9917 73.0749 61.9917 71.0853C61.9917 64.031 63.987 58.1525 67.9776 53.4496C72.1496 48.7468 77.8635 46.3954 85.1191 46.3954C88.9284 46.3954 92.1934 47.1189 94.9143 48.5659C97.8166 49.8321 100.265 51.6408 102.261 53.9923C104.256 56.1628 105.707 58.6951 106.614 61.5891C107.702 64.4832 108.247 67.4677 108.247 70.5426C108.247 73.4367 107.793 76.9638 106.886 81.124C105.979 85.2842 103.621 90.7106 99.8119 97.4031C96.184 104.096 90.5609 112.326 82.9424 122.093C75.324 131.68 64.8033 143.437 51.3803 157.364L0.5 210ZM219.37 23.3502C219.37 26.9013 217.894 29.8843 214.944 32.2991H227.421C228.131 30.5945 228.647 28.961 228.967 27.3985C229.322 25.8715 229.5 24.309 229.5 22.7109C229.5 19.9055 228.967 17.2244 227.9 14.6675C226.87 12.1107 225.412 9.85571 223.528 7.90256C221.68 5.98493 219.458 4.44017 216.864 3.26828C214.304 2.13191 211.478 1.56372 208.386 1.56372C205.294 1.56372 202.432 2.14966 199.802 3.32155C197.207 4.49344 194.95 6.03819 193.03 7.95583C191.146 9.90897 189.671 12.1462 188.605 14.6675C187.574 17.2244 187.059 19.8878 187.059 22.6577C187.059 24.0071 187.201 25.3743 187.485 26.7593C187.734 28.1442 188.143 29.6357 188.712 31.2338L189.085 32.2991H201.455C198.611 29.6357 197.189 26.635 197.189 23.2969C197.189 21.7699 197.474 20.3494 198.042 19.0355C198.611 17.7215 199.393 16.5674 200.388 15.5731C201.384 14.6143 202.557 13.8508 203.907 13.2826C205.258 12.7499 206.733 12.4836 208.333 12.4836C209.897 12.4836 211.354 12.7499 212.705 13.2826C214.055 13.8508 215.211 14.6143 216.17 15.5731C217.166 16.5319 217.948 17.6683 218.516 18.9822C219.085 20.3317 219.37 21.7876 219.37 23.3502ZM219.529 49.3443V61.7556H228.38V38.9039L188.178 38.9039V61.7556H197.029V49.3443H203.961V61.0632H212.811V49.3443H219.529ZM211.798 79.7235L228.38 92.4544V105.345L209.346 89.4182L188.178 106.837V93.3067L205.613 79.7235H188.178L188.178 69.283H228.38V79.7235H211.798ZM180.66 152.487H197.029V147.426H228.38V136.986H197.029V121.911H228.38V111.471H188.178V142.099H180.66V152.487ZM228.38 168.78H188.178V158.34H228.38V168.78ZM220.329 194.11V196.134H210.412V194.11C210.412 192.086 210.839 190.505 211.692 189.369C212.545 188.268 213.771 187.718 215.371 187.718C216.97 187.718 218.197 188.268 219.05 189.369C219.903 190.505 220.329 192.086 220.329 194.11ZM208.493 179.195C206.609 180.686 205.329 182.87 204.654 185.747L188.178 173.122V186.173L203.641 196.134H188.178V206.521H228.38V190.274C228.38 188.144 228.06 186.244 227.421 184.575C226.781 182.941 225.892 181.556 224.755 180.42C223.653 179.319 222.338 178.467 220.809 177.863C219.316 177.295 217.699 177.011 215.957 177.011C212.9 177.011 210.412 177.739 208.493 179.195Z" fill="#0B074D"/>
</svg>
