<svg width="25" height="25" viewBox="0 0 25 25" fill="none" xmlns="http://www.w3.org/2000/svg">
<path d="M22.7501 17.42V20.42C22.7512 20.6985 22.6942 20.9742 22.5826 21.2294C22.4711 21.4845 22.3074 21.7136 22.1022 21.9019C21.897 22.0901 21.6547 22.2335 21.3909 22.3227C21.127 22.4119 20.8475 22.4451 20.5701 22.42C17.493 22.0856 14.5371 21.0342 11.9401 19.35C9.52394 17.8147 7.47545 15.7662 5.94012 13.35C4.25009 10.7412 3.19836 7.771 2.87012 4.68001C2.84513 4.40347 2.87799 4.12477 2.96662 3.86163C3.05524 3.59849 3.19769 3.35669 3.38488 3.15163C3.57208 2.94656 3.79992 2.78271 4.05391 2.67053C4.30789 2.55834 4.58246 2.50027 4.86012 2.50001H7.86012C8.34542 2.49523 8.81591 2.66708 9.18388 2.98354C9.55185 3.29999 9.79219 3.73945 9.86012 4.22001C9.98674 5.18007 10.2216 6.12273 10.5601 7.03001C10.6947 7.38793 10.7238 7.77692 10.644 8.15089C10.5643 8.52485 10.379 8.86812 10.1101 9.14001L8.84012 10.41C10.2637 12.9136 12.3366 14.9865 14.8401 16.41L16.1101 15.14C16.382 14.8711 16.7253 14.6859 17.0992 14.6061C17.4732 14.5263 17.8622 14.5555 18.2201 14.69C19.1274 15.0286 20.0701 15.2634 21.0301 15.39C21.5159 15.4585 21.9595 15.7032 22.2766 16.0775C22.5938 16.4518 22.7623 16.9296 22.7501 17.42Z" fill="#393939"/>
</svg>
